<?xml version="1.0" encoding="UTF-8" standalone="no"?>
<svg
   xmlns:dc="http://purl.org/dc/elements/1.1/"
   xmlns:cc="http://creativecommons.org/ns#"
   xmlns:rdf="http://www.w3.org/1999/02/22-rdf-syntax-ns#"
   xmlns:svg="http://www.w3.org/2000/svg"
   xmlns="http://www.w3.org/2000/svg"
   xmlns:sodipodi="http://sodipodi.sourceforge.net/DTD/sodipodi-0.dtd"
   xmlns:inkscape="http://www.inkscape.org/namespaces/inkscape"
   version="1.1"
   id="Capa_1"
   x="0px"
   y="0px"
   viewBox="0 0 512 512"
   style="enable-background:new 0 0 512 512;"
   xml:space="preserve"
   sodipodi:docname="logo_white_words.svg"
   inkscape:version="1.0.2 (e86c870879, 2021-01-15, custom)"
   inkscape:export-filename="C:\Users\Gary\Documents\Sites\werkspc\public-documents\content\en\logo_white_words.png"
   inkscape:export-xdpi="96"
   inkscape:export-ydpi="96"><metadata
     id="metadata4741"><rdf:RDF><cc:Work
         rdf:about=""><dc:format>image/svg+xml</dc:format><dc:type
           rdf:resource="http://purl.org/dc/dcmitype/StillImage" /><dc:title /></cc:Work></rdf:RDF></metadata><defs
     id="defs4739"><rect
       x="-453.33121"
       y="-322.98038"
       width="347.60221"
       height="69.520441"
       id="rect1101" /></defs><sodipodi:namedview
     pagecolor="#ffffff"
     bordercolor="#666666"
     borderopacity="1"
     objecttolerance="10"
     gridtolerance="10"
     guidetolerance="10"
     inkscape:pageopacity="0"
     inkscape:pageshadow="2"
     inkscape:window-width="2560"
     inkscape:window-height="1417"
     id="namedview4737"
     showgrid="false"
     inkscape:zoom="0.69044441"
     inkscape:cx="202.96436"
     inkscape:cy="287.26762"
     inkscape:window-x="-8"
     inkscape:window-y="-8"
     inkscape:window-maximized="1"
     inkscape:current-layer="g1097"
     inkscape:document-rotation="0" /><g
     id="g4692" /><g
     id="g4706" /><g
     id="g4708" /><g
     id="g4710" /><g
     id="g4712" /><g
     id="g4714" /><g
     id="g4716" /><g
     id="g4718" /><g
     id="g4720" /><g
     id="g4722" /><g
     id="g4724" /><g
     id="g4726" /><g
     id="g4728" /><g
     id="g4730" /><g
     id="g4732" /><g
     id="g4734" /><g
     id="g5185"
     style="display:inline"><g
       id="g1097"><g
         id="g4662"
         style="fill:#ffffff;stroke:#000000;stroke-width:2;stroke-miterlimit:4;stroke-dasharray:none"><g
           id="g4660"
           style="fill:#ffffff;stroke:#000000;stroke-width:2;stroke-miterlimit:4;stroke-dasharray:none"><path
             id="path4658"
             d="m 206,83 c -5.52,0 -10,4.48 -10,10 0,5.52 4.48,10 10,10 5.52,0 10,-4.48 10,-10 0,-5.52 -4.48,-10 -10,-10 z"
             style="fill:#ffffff;stroke:#000000;stroke-width:2;stroke-miterlimit:4;stroke-dasharray:none" /></g></g><path
         id="path4664"
         style="fill:#ffffff;stroke:#000000;stroke-width:2;stroke-miterlimit:4;stroke-dasharray:none"
         d="M 196 0 C 169.023 0 143.43831 18.103734 131.94531 44.677734 C 102.40031 51.833734 82.768781 79.851078 86.425781 110.08008 C 62.257781 122.19608 46 148.145 46 176 C 46 185.002 47.790031 193.80553 51.332031 202.26953 C 35.327031 215.49853 26 235.004 26 256 C 26 270 30.329953 286.05186 38.876953 298.88086 C 30.524953 310.67086 26 324.644 26 339 C 26 357.616 33.547438 375.34958 46.898438 388.51758 C 40.034437 430.00958 73.125 472 116 472 C 116.31 472 116.61506 471.99533 116.91406 471.98633 C 131.12906 496.50833 157.515 512 186 512 C 215.688 512 242.216 494.17986 256 468.50586 C 269.784 494.17986 296.312 512 326 512 C 354.485 512 380.87094 496.50833 395.08594 471.98633 C 395.38594 471.99533 395.69 472 396 472 C 433.944 472 466 438.57 466 399 C 466 395.631 465.70456 392.16558 465.10156 388.51758 C 478.45256 375.34958 486 357.617 486 339 C 486 324.644 481.47505 310.67181 473.12305 298.88281 C 481.70605 286.00081 486 269.927 486 256 C 486 235.004 476.67297 215.49753 460.66797 202.26953 C 464.20997 193.80553 466 185.002 466 176 C 466 148.145 449.74322 122.19708 425.57422 110.08008 C 429.24122 79.666078 409.42369 51.788734 380.05469 44.677734 C 368.55969 18.104734 342.975 4.7369516e-15 316 0 C 290.89 0 268.369 14.645625 256 36.015625 C 243.63 14.645625 221.109 4.7369516e-15 196 0 z M 196 20 C 222.636 20 246 44.766 246 73 L 246 151.38086 C 240.112 147.96586 233.283 146 226 146 C 220.477 146 216 150.477 216 156 C 216 161.523 220.477 166 226 166 C 237.028 166 246 174.972 246 186 L 246 225.58398 L 266 225.58398 L 266 186 L 266 151.38086 L 266 73 C 266 44.766 289.364 20 316 20 C 333.256 20 347.91928 30.624844 356.73828 43.714844 L 371.75586 58.683594 C 371.75586 58.683594 406 80.787 406 103 C 406 103.264 405.97961 103.5202 405.97461 103.7832 C 405.97461 103.7832 445.15878 148.36871 446 176 C 446 184.403 443.74578 192.63952 439.30078 200.47852 C 436.67078 205.11752 438.14344 211.00342 442.64844 213.85742 C 457.27044 223.12042 466 238.875 466 256 L 458.66211 313.27148 C 463.43411 321.05448 466 329.93 466 339 C 466 353.671 459.35644 367.61491 447.77344 377.25391 C 444.84544 379.68991 443.55627 383.57534 444.44727 387.27734 C 445.50727 391.68034 446 395.40505 446 398.99805 C 446 430.03805 417.92528 455.12406 392.61328 451.66406 C 391.91028 451.56806 391.20505 451.47453 390.49805 451.39453 C 386.21105 450.90953 382.11178 453.21414 380.30078 457.11914 C 370.46678 478.30814 349.151 492 326 492 C 293.477 492 266 463.149 266 429 L 266 376.16992 L 266 286.41602 L 246 286.41602 L 246 376.16992 C 231.329 359.52892 209.877 349 186 349 C 180.477 349 176 353.477 176 359 C 176 364.523 180.477 369 186 369 C 219.084 369 246 395.916 246 429 C 246 463.149 218.523 492 186 492 C 162.848 492 141.53517 478.30814 131.70117 457.11914 C 129.88817 453.21414 125.78295 450.91253 121.50195 451.39453 C 120.79495 451.47553 120.09167 451.56806 119.38867 451.66406 C 90.928672 455.55606 58.878688 423.32934 67.554688 387.27734 C 68.445688 383.57434 67.155516 379.68991 64.228516 377.25391 C 52.644516 367.61491 46 353.671 46 339 C 46 329.929 48.564891 321.05158 53.337891 313.26758 C 65.331891 323.09758 80.251 329 96 329 C 101.523 329 106 324.523 106 319 C 106 313.477 101.523 309 96 309 C 68.861 309 46 284.23 46 256 C 46 238.875 54.728562 223.12042 69.351562 213.85742 C 73.856562 211.00342 75.330219 205.11752 72.699219 200.47852 C 68.254219 192.63952 66 184.403 66 176 C 66 149.01 88.002 123 116 123 C 142.636 123 166 147.767 166 176 C 166 181.523 170.477 186 176 186 C 181.523 186 186 181.523 186 176 C 186 136.43 153.944 103 116 103 C 112.652 103 109.32239 103.2702 106.02539 103.7832 C 106.02039 103.5202 106 103.265 106 103 C 106 80.683 124.117 63 146 63 C 156.682 63 166.73097 67.160844 174.29297 74.714844 C 178.19997 78.617844 184.52959 78.613031 188.43359 74.707031 C 192.33659 70.799031 192.33473 64.469406 188.42773 60.566406 C 179.30473 51.453406 167.76477 45.640844 155.25977 43.714844 C 164.07877 30.623844 178.744 20 196 20 z " /><path
         id="path4670"
         style="fill:#ffffff;stroke:#000000;stroke-width:2;stroke-miterlimit:4;stroke-dasharray:none"
         d="M 116 166 C 110.477 166 106 170.477 106 176 C 106 195.36166 113.90884 212.90294 126.6582 225.58398 L 170.04297 225.58398 C 146.71338 222.57003 126 203.3495 126 176 C 126 170.477 121.523 166 116 166 z M 215.5957 210.72852 C 213.35635 210.81773 211.13322 211.6567 209.33203 213.26758 C 201.33745 220.41877 192.15037 224.35981 182.86133 225.58398 L 224.72852 225.58398 C 226.74638 221.96239 226.37243 217.31614 223.45312 214.05273 C 221.382 211.73748 218.47487 210.61381 215.5957 210.72852 z " /><g
         id="g4680"
         style="fill:#ffffff;stroke:#000000;stroke-width:2;stroke-miterlimit:4;stroke-dasharray:none"><g
           id="g4678"
           style="fill:#ffffff;stroke:#000000;stroke-width:2;stroke-miterlimit:4;stroke-dasharray:none"><path
             id="path4676"
             d="m 116,389 c -5.523,0 -10,4.477 -10,10 0,5.523 4.477,10 10,10 26.636,0 50,24.767 50,53 0,5.523 4.477,10 10,10 5.523,0 10,-4.477 10,-10 0,-39.57 -32.056,-73 -70,-73 z"
             style="fill:#ffffff;stroke:#000000;stroke-width:2;stroke-miterlimit:4;stroke-dasharray:none" /></g></g><g
         id="g4686"
         style="fill:#ffffff;stroke:#000000;stroke-width:2;stroke-miterlimit:4;stroke-dasharray:none"><g
           id="g4684"
           style="fill:#ffffff;stroke:#000000;stroke-width:2;stroke-miterlimit:4;stroke-dasharray:none"><path
             id="path4682"
             d="m 196,309 c -33.886,0 -62.98,18.585 -78.3,45.608 -2.723,4.805 -1.036,10.908 3.768,13.631 4.805,2.723 10.907,1.037 13.631,-3.768 C 147.034,343.415 169.68,329 196,329 c 5.523,0 10,-4.477 10,-10 0,-5.523 -4.477,-10 -10,-10 z"
             style="fill:#ffffff;stroke:#000000;stroke-width:2;stroke-miterlimit:4;stroke-dasharray:none" /></g></g><path
         inkscape:connector-curvature="0"
         id="path4916"
         d="m 321.71443,103.44641 c 13.232,0 24,-10.768 24,-24.000001 0,-13.232 -10.768,-24 -24,-24 -13.232,0 -24,10.768 -24,24 0,13.232001 10.768,24.000001 24,24.000001 z m 0,-32.000001 c 4.416,0 8,3.584 8,8 0,4.416 -3.584,8.000004 -8,8.000004 -4.416,0 -8,-3.584004 -8,-8.000004 0,-4.416 3.584,-8 8,-8 z"
         style="fill:#ffffff;stroke:#000000;stroke-width:2;stroke-miterlimit:4;stroke-dasharray:none" /><path
         id="path4922"
         style="fill:#ffffff;stroke:#000000;stroke-width:2;stroke-miterlimit:4;stroke-dasharray:none"
         d="M 377.25195 168.48828 L 377.25195 192.48828 C 377.25195 205.72028 366.48395 216.48828 353.25195 216.48828 L 273.25195 216.48828 L 273.25195 225.58398 L 375.69141 225.58398 C 386.28182 218.38059 393.25195 206.2337 393.25195 192.48828 L 393.25195 168.48828 L 377.25195 168.48828 z " /><path
         sodipodi:nodetypes="sccssccss"
         inkscape:connector-curvature="0"
         id="path4914"
         d="M 329.2518,150.26656 V 110.0939 h -16 v 40.17266 c 0,4.416 -3.584,8 -8,8 h -32 v 16 h 32 c 13.232,0 24,-10.768 24,-24 z"
         style="fill:#ffffff;stroke:#000000;stroke-width:2;stroke-miterlimit:4;stroke-dasharray:none" /><path
         inkscape:connector-curvature="0"
         id="path4916-0"
         d="m 384.89209,160.28778 c 13.232,0 24,-10.76801 24,-24.00001 0,-13.232 -10.768,-24 -24,-24 -13.232,0 -24,10.768 -24,24 0,13.232 10.768,24.00001 24,24.00001 z m 0,-32.00001 c 4.416,0 8,3.584 8,8 0,4.416 -3.584,8 -8,8 -4.416,0 -8,-3.584 -8,-8 0,-4.416 3.584,-8 8,-8 z"
         style="fill:#ffffff;stroke:#000000;stroke-width:2;stroke-miterlimit:4;stroke-dasharray:none" /><path
         inkscape:connector-curvature="0"
         id="path4916-0-6"
         d="m 431.02158,292.22132 c 13.232,0 24,-10.76801 24,-24.00001 0,-13.232 -10.768,-24 -24,-24 -13.232,0 -24,10.768 -24,24 0,13.232 10.768,24.00001 24,24.00001 z m 0,-32.00001 c 4.416,0 8,3.584 8,8 0,4.416 -3.584,8 -8,8 -4.416,0 -8,-3.584 -8,-8 0,-4.416 3.584,-8 8,-8 z"
         style="fill:#ffffff;stroke:#000000;stroke-width:2;stroke-miterlimit:4;stroke-dasharray:none" /><g
         transform="matrix(1,0,0,-1,-32.30935,610.94964)"
         id="g5159"
         style="fill:#ffffff;stroke:#000000;stroke-width:2;stroke-miterlimit:4;stroke-dasharray:none"><path
           d="m 354.02378,177.95342 c 13.232,0 24,-10.768 24,-24 0,-13.232 -10.768,-24 -24,-24 -13.232,0 -24,10.768 -24,24 0,13.232 10.768,24 24,24 z m 0,-32 c 4.416,0 8,3.584 8,8 0,4.416 -3.584,8 -8,8 -4.416,0 -8,-3.584 -8,-8 0,-4.416 3.584,-8 8,-8 z"
           id="path4916-4"
           inkscape:connector-curvature="0"
           style="fill:#ffffff;stroke:#000000;stroke-width:2;stroke-miterlimit:4;stroke-dasharray:none" /><path
           d="m 409.56115,266.99622 c 0,13.232 -10.768,24 -24,24 h -80 v 16 h 80 c 22.056,0 40,-17.944 40,-40 v -24 h -16 z"
           id="path4922-7"
           inkscape:connector-curvature="0"
           style="fill:#ffffff;stroke:#000000;stroke-width:2;stroke-miterlimit:4;stroke-dasharray:none" /><path
           d="m 361.56115,224.77357 v -40.17266 h -16 v 40.17266 c 0,4.416 -3.584,8 -8,8 h -32 v 16 h 32 c 13.232,0 24,-10.768 24,-24 z"
           id="path4914-2"
           inkscape:connector-curvature="0"
           sodipodi:nodetypes="sccssccss"
           style="fill:#ffffff;stroke:#000000;stroke-width:2;stroke-miterlimit:4;stroke-dasharray:none" /><path
           d="m 417.20144,234.79479 c 13.232,0 24,-10.76801 24,-24.00001 0,-13.232 -10.768,-24 -24,-24 -13.232,0 -24,10.768 -24,24 0,13.232 10.768,24.00001 24,24.00001 z m 0,-32.00001 c 4.416,0 8,3.584 8,8 0,4.416 -3.584,8 -8,8 -4.416,0 -8,-3.584 -8,-8 0,-4.416 3.584,-8 8,-8 z"
           id="path4916-0-65"
           inkscape:connector-curvature="0"
           style="fill:#ffffff;stroke:#000000;stroke-width:2;stroke-miterlimit:4;stroke-dasharray:none" /></g><text
         xml:space="preserve"
         id="text1099"
         style="font-style:normal;font-variant:normal;font-weight:normal;font-stretch:normal;font-size:4.17714px;line-height:1.25;font-family:'Arial Rounded MT Bold';-inkscape-font-specification:'Arial Rounded MT Bold, Normal';font-variant-ligatures:normal;font-variant-caps:normal;font-variant-numeric:normal;font-variant-east-asian:normal;letter-spacing:0px;white-space:pre;shape-inside:url(#rect1101);fill:#ffffff;stroke:#000000;stroke-width:0.0870238;stroke-miterlimit:4;stroke-dasharray:none;"
         transform="matrix(9.5892922,0,0,13.770095,4487.1317,4672.537)"><tspan
           x="-453.33203"
           y="-319.2162"><tspan
             style="font-style:normal;font-variant:normal;font-weight:normal;font-stretch:normal;font-size:4.17714px;font-family:'Arial Rounded MT Bold';-inkscape-font-specification:'Arial Rounded MT Bold, Normal';font-variant-ligatures:normal;font-variant-caps:normal;font-variant-numeric:normal;font-variant-east-asian:normal;fill:#ffffff;stroke:#000000;stroke-width:0.0870238;stroke-miterlimit:4;stroke-dasharray:none">Werk Space</tspan></tspan></text></g></g></svg>
