<?xml version="1.0" encoding="UTF-8" standalone="no"?>
<svg
   xmlns:dc="http://purl.org/dc/elements/1.1/"
   xmlns:cc="http://creativecommons.org/ns#"
   xmlns:rdf="http://www.w3.org/1999/02/22-rdf-syntax-ns#"
   xmlns:svg="http://www.w3.org/2000/svg"
   xmlns="http://www.w3.org/2000/svg"
   version="1.1"
   id="Capa_1"
   x="0px"
   y="0px"
   viewBox="0 0 512 512"
   style="enable-background:new 0 0 512 512;"
   xml:space="preserve"><metadata
     id="metadata4741"><rdf:RDF><cc:Work
         rdf:about=""><dc:format>image/svg+xml</dc:format><dc:type
           rdf:resource="http://purl.org/dc/dcmitype/StillImage" /><dc:title></dc:title></cc:Work></rdf:RDF></metadata><defs
     id="defs4739" /><g
     id="g4692" /><g
     id="g4706" /><g
     id="g4708" /><g
     id="g4710" /><g
     id="g4712" /><g
     id="g4714" /><g
     id="g4716" /><g
     id="g4718" /><g
     id="g4720" /><g
     id="g4722" /><g
     id="g4724" /><g
     id="g4726" /><g
     id="g4728" /><g
     id="g4730" /><g
     id="g4732" /><g
     id="g4734" /><g
     id="g5185"><g
       id="g4662"><g
         id="g4660"><path
           id="path4658"
           d="M206,83c-5.52,0-10,4.48-10,10s4.48,10,10,10s10-4.48,10-10S211.52,83,206,83z" /></g></g><path
       id="path4664"
       d="M 473.123,298.882 C 481.706,286 486,269.927 486,256 486,235.004 476.673,215.497 460.668,202.269 464.21,193.805 466,185.002 466,176 466,148.145 449.744,122.197 425.575,110.08 429.242,79.666 409.424,51.788 380.055,44.677 368.56,18.104 342.975,0 316,0 290.89,0 268.369,14.646 256,36.016 243.63,14.646 221.109,0 196,0 169.023,0 143.438,18.104 131.945,44.678 102.4,51.834 82.768,79.851 86.425,110.08 62.257,122.196 46,148.145 46,176 c 0,9.002 1.79,17.805 5.332,26.269 C 35.327,215.498 26,235.004 26,256 c 0,14 4.33,30.052 12.877,42.881 C 30.525,310.671 26,324.644 26,339 c 0,18.616 7.548,36.35 20.899,49.518 C 40.035,430.01 73.125,472 116,472 c 0.31,0 0.615,-0.005 0.914,-0.014 C 131.129,496.508 157.515,512 186,512 c 29.688,0 56.216,-17.82 70,-43.494 13.784,25.674 40.312,43.494 70,43.494 28.485,0 54.871,-15.492 69.086,-40.014 0.3,0.009 0.604,0.014 0.914,0.014 37.944,0 70,-33.43 70,-73 0,-3.369 -0.296,-6.834 -0.899,-10.482 C 478.452,375.35 486,357.617 486,339 c 0,-14.356 -4.525,-28.329 -12.877,-40.118 z M 246,151.381 C 240.112,147.966 233.283,146 226,146 c -5.523,0 -10,4.477 -10,10 0,5.523 4.477,10 10,10 11.028,0 20,8.972 20,20 V 376.169 C 231.329,359.528 209.877,349 186,349 c -5.523,0 -10,4.477 -10,10 0,5.523 4.477,10 10,10 33.084,0 60,26.916 60,60 0,34.149 -27.477,63 -60,63 -23.152,0 -44.465,-13.691 -54.299,-34.88 -1.813,-3.905 -5.919,-6.208 -10.2,-5.726 -0.707,0.081 -1.41,0.175 -2.113,0.271 -28.46,3.892 -60.51,-28.335 -51.834,-64.387 0.891,-3.703 -0.399,-7.589 -3.326,-10.025 C 52.644,367.614 46,353.671 46,339 46,329.929 48.565,321.052 53.338,313.268 65.332,323.098 80.251,329 96,329 c 5.523,0 10,-4.477 10,-10 0,-5.523 -4.477,-10 -10,-10 -27.139,0 -50,-24.77 -50,-53 0,-17.125 8.729,-32.879 23.352,-42.142 4.505,-2.854 5.978,-8.741 3.347,-13.38 C 68.254,192.639 66,184.403 66,176 c 0,-26.99 22.002,-53 50,-53 26.636,0 50,24.767 50,53 0,5.523 4.477,10 10,10 5.523,0 10,-4.477 10,-10 0,-39.57 -32.056,-73 -70,-73 -3.348,0 -6.678,0.271 -9.975,0.784 C 106.02,103.521 106,103.265 106,103 c 0,-22.317 18.117,-40 40,-40 10.682,0 20.73,4.161 28.292,11.715 3.907,3.903 10.238,3.899 14.142,-0.007 3.903,-3.908 3.9,-10.239 -0.007,-14.142 C 179.304,51.453 167.765,45.641 155.26,43.715 164.079,30.624 178.744,20 196,20 c 26.636,0 50,24.766 50,53 z m 212.663,161.89 C 463.435,321.054 466,329.93 466,339 c 0,14.671 -6.644,28.614 -18.227,38.253 -2.928,2.436 -4.217,6.323 -3.326,10.025 1.06,4.403 1.553,8.128 1.553,11.721 0,31.04 -28.075,56.126 -53.387,52.666 -0.703,-0.096 -1.407,-0.191 -2.114,-0.271 -4.287,-0.485 -8.388,1.821 -10.199,5.726 C 370.466,478.309 349.151,492 326,492 293.477,492 266,463.149 266,429 V 376.169 186 151.381 73 c 0,-28.234 23.364,-53 50,-53 17.256,0 31.92,10.624 40.739,23.714 l 15.0164,14.969453 c 0,0 34.2446,22.103547 34.2446,44.316547 0,0.264 -0.02,0.521 -0.025,0.784 0,0 39.18378,44.58471 40.025,72.216 0,8.403 -2.254,16.639 -6.699,24.478 -2.63,4.639 -1.157,10.526 3.348,13.38 C 457.271,223.121 466,238.875 466,256 c -7.337,57.271 0,0 -7.337,57.271 z" /><g
       id="g4674"><g
         id="g4672"><path
           id="path4670"
           d="M223.453,214.053c-3.682-4.116-10.003-4.468-14.12-0.786C177.265,241.952,126,219.027,126,176c0-5.523-4.477-10-10-10    s-10,4.477-10,10c0,34.715,25.407,63.595,58.6,69.057C160.75,257.185,149.386,266,136,266c-5.523,0-10,4.477-10,10s4.477,10,10,10    c24.357,0,44.69-17.51,49.102-40.602c13.907-1.819,26.996-7.77,37.565-17.225C226.783,224.491,227.135,218.169,223.453,214.053z" /></g></g><g
       id="g4680"><g
         id="g4678"><path
           id="path4676"
           d="M116,389c-5.523,0-10,4.477-10,10s4.477,10,10,10c26.636,0,50,24.767,50,53c0,5.523,4.477,10,10,10s10-4.477,10-10    C186,422.43,153.944,389,116,389z" /></g></g><g
       id="g4686"><g
         id="g4684"><path
           id="path4682"
           d="M196,309c-33.886,0-62.98,18.585-78.3,45.608c-2.723,4.805-1.036,10.908,3.768,13.631    c4.805,2.723,10.907,1.037,13.631-3.768C147.034,343.415,169.68,329,196,329c5.523,0,10-4.477,10-10S201.523,309,196,309z" /></g></g><path
       id="path4916"
       d="m 321.71443,103.44641 c 13.232,0 24,-10.768 24,-24.000001 0,-13.232 -10.768,-24 -24,-24 -13.232,0 -24,10.768 -24,24 0,13.232001 10.768,24.000001 24,24.000001 z m 0,-32.000001 c 4.416,0 8,3.584 8,8 0,4.416 -3.584,8.000004 -8,8.000004 -4.416,0 -8,-3.584004 -8,-8.000004 0,-4.416 3.584,-8 8,-8 z" /><path
       id="path4922"
       d="m 377.2518,192.4892 c 0,13.232 -10.768,24 -24,24 h -80 v 16 h 80 c 22.056,0 40,-17.944 40,-40 v -24 h -16 z" /><path
       id="path4914"
       d="M 329.2518,150.26656 V 110.0939 h -16 v 40.17266 c 0,4.416 -3.584,8 -8,8 h -32 v 16 h 32 c 13.232,0 24,-10.768 24,-24 z" /><path
       id="path4916-0"
       d="m 384.89209,160.28778 c 13.232,0 24,-10.76801 24,-24.00001 0,-13.232 -10.768,-24 -24,-24 -13.232,0 -24,10.768 -24,24 0,13.232 10.768,24.00001 24,24.00001 z m 0,-32.00001 c 4.416,0 8,3.584 8,8 0,4.416 -3.584,8 -8,8 -4.416,0 -8,-3.584 -8,-8 0,-4.416 3.584,-8 8,-8 z" /><rect
       transform="rotate(-90)"
       id="rect4928"
       height="128"
       width="16"
       y="273.2518"
       x="-276.22131" /><path
       id="path4916-0-6"
       d="m 431.02158,292.22132 c 13.232,0 24,-10.76801 24,-24.00001 0,-13.232 -10.768,-24 -24,-24 -13.232,0 -24,10.768 -24,24 0,13.232 10.768,24.00001 24,24.00001 z m 0,-32.00001 c 4.416,0 8,3.584 8,8 0,4.416 -3.584,8 -8,8 -4.416,0 -8,-3.584 -8,-8 0,-4.416 3.584,-8 8,-8 z" /><g
       transform="matrix(1,0,0,-1,-32.30935,610.94964)"
       id="g5159"><path
         d="m 354.02378,177.95342 c 13.232,0 24,-10.768 24,-24 0,-13.232 -10.768,-24 -24,-24 -13.232,0 -24,10.768 -24,24 0,13.232 10.768,24 24,24 z m 0,-32 c 4.416,0 8,3.584 8,8 0,4.416 -3.584,8 -8,8 -4.416,0 -8,-3.584 -8,-8 0,-4.416 3.584,-8 8,-8 z"
         id="path4916-4" /><path
         d="m 409.56115,266.99622 c 0,13.232 -10.768,24 -24,24 h -80 v 16 h 80 c 22.056,0 40,-17.944 40,-40 v -24 h -16 z"
         id="path4922-7" /><path
         d="m 361.56115,224.77357 v -40.17266 h -16 v 40.17266 c 0,4.416 -3.584,8 -8,8 h -32 v 16 h 32 c 13.232,0 24,-10.768 24,-24 z"
         id="path4914-2" /><path
         d="m 417.20144,234.79479 c 13.232,0 24,-10.76801 24,-24.00001 0,-13.232 -10.768,-24 -24,-24 -13.232,0 -24,10.768 -24,24 0,13.232 10.768,24.00001 24,24.00001 z m 0,-32.00001 c 4.416,0 8,3.584 8,8 0,4.416 -3.584,8 -8,8 -4.416,0 -8,-3.584 -8,-8 0,-4.416 3.584,-8 8,-8 z"
         id="path4916-0-65" /></g></g></svg>
